<?xml version="1.0" encoding="UTF-8"?><svg id="Layer_2" xmlns="http://www.w3.org/2000/svg" viewBox="0 0 153.25 125.73"><defs><style>.cls-1{fill:#fff;}</style></defs><g id="Layer_1-2"><g><path class="cls-1" d="M40.88,46.63c4.24-8.63,11.16-17.73,20.75-27.32L37.39,0C23.69,13.97,14.03,27.46,8.42,40.47,2.81,53.48,0,67.79,0,83.41v42.32H67.38V59.17h-31.05c1.06-4.31,2.56-8.49,4.55-12.53Z"/><path class="cls-1" d="M122.2,59.17c1.06-4.31,2.56-8.49,4.55-12.53,4.24-8.63,11.16-17.73,20.75-27.32L123.26,0c-13.7,13.97-23.36,27.46-28.97,40.47-5.62,13.01-8.42,27.32-8.42,42.94v42.32h67.38V59.17h-31.05Z"/></g></g></svg>